<?xml version="1.0" encoding="iso-8859-1"?>
<!-- Generator: Adobe Illustrator 19.0.0, SVG Export Plug-In . SVG Version: 6.00 Build 0)  -->
<svg version="1.1" id="Capa_1" xmlns="http://www.w3.org/2000/svg" xmlns:xlink="http://www.w3.org/1999/xlink" x="0px" y="0px"
	 viewBox="0 0 487.2 487.2" style="enable-background:new 0 0 487.2 487.2;" xml:space="preserve">
<g>
	<g>
		<g>
			<path d="M0,322.5V88.3c0-18.4,14.9-33.4,33.4-33.4H380c18.4,0,33.4,14.9,33.4,33.4v134.5c-5.3-0.7-10.7-1.1-16.1-1.1
				c-10.1,0-20,1.3-29.4,3.6V100.4H45.5v209.5h235.6c-2.8,10.3-4.4,21-4.4,32.2c0,4.6,0.3,9.2,0.8,13.7H244V393h26.5
				c4.4,0,8,3.6,8,8v23.2c0,4.4-3.6,8-8,8H142.7c-4.4,0-8-3.6-8-8V401c0-4.4,3.6-8,8-8h26.5v-37.2H33.3C14.9,355.8,0,340.9,0,322.5z
				 M487.2,342.1c0,49.8-40.4,90.2-90.2,90.2s-90.2-40.4-90.2-90.2s40.4-90.2,90.2-90.2S487.2,292.4,487.2,342.1z M441,342.1
				c0-6.7-5.4-12.2-12.2-12.2h-19.6v-19.6c0-6.7-5.4-12.2-12.2-12.2c-6.7,0-12.2,5.4-12.2,12.2v19.6h-19.6
				c-6.7,0-12.2,5.4-12.2,12.2c0,6.7,5.4,12.2,12.2,12.2h19.6v19.6c0,6.7,5.4,12.2,12.2,12.2c6.7,0,12.2-5.4,12.2-12.2v-19.6h19.6
				C435.5,354.3,441,348.9,441,342.1z"/>
		</g>
	</g>
</g>
<g>
</g>
<g>
</g>
<g>
</g>
<g>
</g>
<g>
</g>
<g>
</g>
<g>
</g>
<g>
</g>
<g>
</g>
<g>
</g>
<g>
</g>
<g>
</g>
<g>
</g>
<g>
</g>
<g>
</g>
</svg>
